<?xml version="1.0" encoding="UTF-8" standalone="no"?>
<svg
   xmlns:dc="http://purl.org/dc/elements/1.1/"
   xmlns:cc="http://creativecommons.org/ns#"
   xmlns:rdf="http://www.w3.org/1999/02/22-rdf-syntax-ns#"
   xmlns:svg="http://www.w3.org/2000/svg"
   xmlns="http://www.w3.org/2000/svg"
   id="svg126"
   version="1.1"
   viewBox="0 0 549.72424 258.02841"
   height="258.02841mm"
   width="549.72424mm">
  <defs
     id="defs120" />
  <metadata
     id="metadata123">
    <rdf:RDF>
      <cc:Work
         rdf:about="">
        <dc:format>image/svg+xml</dc:format>
        <dc:type
           rdf:resource="http://purl.org/dc/dcmitype/StillImage" />
        <dc:title></dc:title>
      </cc:Work>
    </rdf:RDF>
  </metadata>
  <g
     transform="translate(-75.143826,-81.140561)"
     id="layer1">
    <path
       style="fill:none;stroke:#000000;stroke-width:0.264583px;stroke-linecap:butt;stroke-linejoin:miter;stroke-opacity:1"
       d="m 83.040651,202.11081 c 0,0 18.298149,-15.40239 9.78668,-24.74075 0,0 -12.6336,-2.94888 -17.299,20.65708 -4.0442,20.4628 41.801479,19.59182 33.293369,48.05209 -7.39032,24.72121 -44.060669,-1.50303 -24.126409,-17.41187 23.818199,-19.00848 17.038619,-20.85431 55.584419,-28.91509 8.30901,-1.7376 6.43899,141.3953 -17.2071,139.26087 -20.39401,-1.84089 17.50742,-133.49568 25.89801,-139.61206 8.39059,-6.11639 21.73364,-0.18899 25.04092,9.73288 3.14425,9.43277 -3.44124,40.15712 -14.07961,34.20685 -5.57515,-3.11831 -3.2128,-16.44197 8.12649,-29.38765 10.77538,-12.30188 26.99262,-11.88413 46.10523,-13.45125 13.43087,-1.10125 26.47082,-18.31314 23.5132,-20.49332 0,0 -18.1967,-1.07032 -25.87547,18.20714 -4.27006,10.71995 -7.71152,28.40181 7.14288,27.15797 14.8544,-1.24384 21.28379,-31.69033 22.14021,-41.51455 1.19072,-13.6591 -4.80538,37.17201 23.84589,34.9651 16.19205,-1.24722 21.41696,-20.41875 27.01646,-23.23929 5.37348,-2.70669 21.34358,-14.2008 24.53509,-13.51813 2.64544,0.56586 -27.76329,53.43307 -2.34518,67.27729 25.4181,13.84422 103.01003,-162.930703 85.73385,-167.944053 -17.27621,-5.01334 -51.26003,138.946543 -47.48027,173.720353 0.86836,7.98883 21.97023,-66.3375 29.22465,-61.57797 2.94765,1.93389 -20.66882,21.17189 -17.3869,28.72619 2.02065,4.6511 12.90219,39.89331 46.39027,24.71456 37.92389,-34.41434 75.28046,-157.706933 68.17463,-158.560173 -7.10584,-0.85324 -61.06467,122.608203 -30.49752,142.437573 30.56718,19.82937 88.18801,-45.48506 80.87916,-51.59347 -10.21295,-8.53557 -33.8014,13.3816 -30.74623,36.00976 2.52754,18.72041 39.62877,21.21327 58.11113,3.47003 30.52675,-29.30591 22.57137,-39.73276 17.79175,-43.25292 -4.77957,-3.52015 -30.07829,2.91097 4.57369,42.13013 20.81887,23.56284 4.1592,48.20846 -17.36082,45.85122 -21.52002,-2.35724 21.03562,-73.91834 63.28399,-60.52475"
       id="path20" />
  </g>
</svg>
